<?xml version="1.0" encoding="iso-8859-1"?>
<!-- Uploaded to: SVG Repo, www.svgrepo.com, Generator: SVG Repo Mixer Tools -->
<svg fill="#000000" height="800px" width="800px" version="1.1" id="Layer_1" xmlns="http://www.w3.org/2000/svg" xmlns:xlink="http://www.w3.org/1999/xlink" 
	 viewBox="0 0 490.675 490.675" xml:space="preserve">
<g>
	<g>
		<g>
			<path d="M108.271,265.156c-0.768-5.248-5.248-9.152-10.56-9.152H32.004c-3.136,0-6.101,1.365-8.149,3.776
				c-2.027,2.389-2.901,5.547-2.368,8.64l10.667,64c0.853,5.141,5.312,8.917,10.517,8.917h80.299c3.989,0,7.616-2.219,9.451-5.739
				c1.835-3.52,1.557-7.787-0.704-11.051C119.471,307.055,111.364,286.489,108.271,265.156z"/>
			<path d="M108.271,225.519c3.093-21.333,11.179-41.899,23.445-59.413c2.261-3.264,2.539-7.531,0.704-11.051
				c-1.835-3.499-5.483-5.717-9.451-5.717H10.671c-3.136,0-6.101,1.365-8.149,3.776c-2.027,2.389-2.901,5.547-2.368,8.64l10.667,64
				c0.853,5.141,5.312,8.917,10.517,8.917h76.373C103.023,234.671,107.503,230.767,108.271,225.519z"/>
			<path d="M458.671,256.004h-65.707c-5.312,0-9.792,3.904-10.56,9.152c-3.093,21.333-11.179,41.899-23.445,59.413
				c-2.261,3.264-2.539,7.531-0.704,11.051c1.835,3.541,5.483,5.739,9.451,5.739h80.299c5.205,0,9.664-3.776,10.517-8.917l10.667-64
				c0.512-3.093-0.363-6.251-2.368-8.64C464.772,257.369,461.807,256.004,458.671,256.004z"/>
			<path d="M245.337,128.004c-64.683,0-117.333,52.629-117.333,117.333s52.651,117.333,117.333,117.333
				s117.333-52.629,117.333-117.333S310.02,128.004,245.337,128.004z M316.889,231.556l-27.733,27.733l8.512,34.048
				c0.896,1.579,1.408,3.392,1.408,5.333c0,5.888-4.779,10.667-10.667,10.667c-0.107,0-0.277,0.021-0.427,0
				c-1.621,0-3.243-0.384-4.779-1.131l-37.888-18.944l-37.888,18.944c-3.755,1.835-8.213,1.408-11.435-1.216
				c-3.243-2.603-4.693-6.869-3.691-10.901l9.216-36.821l-27.733-27.733c-3.051-3.051-3.968-7.637-2.304-11.627
				s5.547-6.571,9.856-6.571h36.075l18.368-36.779c3.627-7.232,15.467-7.232,19.093,0l18.389,36.779h36.075
				c4.309,0,8.213,2.603,9.856,6.592C320.836,223.919,319.919,228.484,316.889,231.556z"/>
			<path d="M488.153,153.113c-2.048-2.411-5.013-3.776-8.149-3.776H367.705c-3.989,0-7.616,2.219-9.451,5.739
				c-1.835,3.52-1.557,7.787,0.704,11.051c12.245,17.515,20.352,38.059,23.445,59.413c0.768,5.248,5.248,9.152,10.56,9.152h76.373
				c5.205,0,9.664-3.776,10.517-8.917l10.667-64C491.055,158.66,490.18,155.503,488.153,153.113z"/>
		</g>
	</g>
</g>
</svg>